<svg width="60" height="60" viewBox="0 0 60 60" fill="none" xmlns="http://www.w3.org/2000/svg">
<ellipse cx="30" cy="31" rx="30" ry="29" fill="#C7AB17"/>
<ellipse cx="30" cy="29" rx="30" ry="29" fill="#E6C619"/>
<ellipse cx="30" cy="29" rx="26" ry="25" fill="#C7AB17"/>
<path d="M27.49 37.41V40H16.29V37.41H20.392V25.608C20.392 25.1413 20.406 24.6607 20.434 24.166L17.522 26.602C17.354 26.7327 17.186 26.8167 17.018 26.854C16.8593 26.882 16.7053 26.882 16.556 26.854C16.416 26.826 16.29 26.7793 16.178 26.714C16.066 26.6393 15.982 26.56 15.926 26.476L14.834 24.978L21.008 19.728H23.85V37.41H27.49ZM38.0762 37.298C39.0655 37.1673 39.8122 36.836 40.3162 36.304C40.8295 35.7627 41.0862 35.058 41.0862 34.19C41.0862 33.8353 41.0209 33.5273 40.8902 33.266C40.7689 32.9953 40.5915 32.7573 40.3582 32.552C40.1342 32.3467 39.8682 32.1693 39.5602 32.02C39.2522 31.8707 38.9162 31.7307 38.5522 31.6L38.0762 37.298ZM37.1802 22.5C36.6575 22.5653 36.2142 22.6773 35.8502 22.836C35.4862 22.9853 35.1875 23.172 34.9542 23.396C34.7209 23.62 34.5482 23.872 34.4362 24.152C34.3335 24.432 34.2822 24.726 34.2822 25.034C34.2822 25.3887 34.3429 25.7013 34.4642 25.972C34.5949 26.2333 34.7675 26.4713 34.9822 26.686C35.2062 26.8913 35.4675 27.078 35.7662 27.246C36.0649 27.4047 36.3915 27.554 36.7462 27.694L37.1802 22.5ZM38.8182 28.366C39.4902 28.5713 40.1575 28.8 40.8202 29.052C41.4829 29.2947 42.0755 29.612 42.5982 30.004C43.1302 30.396 43.5595 30.886 43.8862 31.474C44.2129 32.0527 44.3762 32.7807 44.3762 33.658C44.3762 34.526 44.2315 35.3427 43.9422 36.108C43.6529 36.864 43.2282 37.536 42.6682 38.124C42.1082 38.7027 41.4222 39.1787 40.6102 39.552C39.7982 39.916 38.8695 40.1307 37.8242 40.196L37.6562 42.254C37.6469 42.4687 37.5535 42.6647 37.3762 42.842C37.2082 43.0287 36.9935 43.122 36.7322 43.122H35.4582L35.7102 40.126C34.6182 39.9767 33.5915 39.678 32.6302 39.23C31.6689 38.782 30.8522 38.2267 30.1802 37.564L31.2442 35.982C31.3375 35.842 31.4589 35.73 31.6082 35.646C31.7669 35.5527 31.9349 35.506 32.1122 35.506C32.3175 35.506 32.5369 35.5807 32.7702 35.73C33.0035 35.87 33.2695 36.038 33.5682 36.234C33.8669 36.4207 34.2075 36.612 34.5902 36.808C34.9729 37.004 35.4255 37.1487 35.9482 37.242L36.4662 30.984C35.8035 30.7973 35.1455 30.578 34.4922 30.326C33.8482 30.074 33.2649 29.7427 32.7422 29.332C32.2289 28.912 31.8135 28.3847 31.4962 27.75C31.1789 27.1153 31.0202 26.322 31.0202 25.37C31.0202 24.6607 31.1602 23.97 31.4402 23.298C31.7202 22.6167 32.1309 22.01 32.6722 21.478C33.2229 20.946 33.8949 20.5073 34.6882 20.162C35.4815 19.8167 36.3915 19.6207 37.4182 19.574L37.5722 17.81C37.5909 17.586 37.6842 17.3853 37.8522 17.208C38.0202 17.0307 38.2395 16.942 38.5102 16.942H39.7842L39.5602 19.686C40.5495 19.8447 41.4035 20.1293 42.1222 20.54C42.8409 20.9413 43.4615 21.394 43.9842 21.898L43.1442 23.172C43.0229 23.3587 42.8969 23.4987 42.7662 23.592C42.6355 23.6853 42.4769 23.732 42.2902 23.732C42.1502 23.732 41.9822 23.69 41.7862 23.606C41.5902 23.5127 41.3709 23.4053 41.1282 23.284C40.8855 23.1533 40.6102 23.0227 40.3022 22.892C40.0035 22.7613 39.6722 22.654 39.3082 22.57L38.8182 28.366Z" fill="#E6C619"/>
</svg>
