<svg width="100" height="100" viewBox="0 0 100 100" fill="none" xmlns="http://www.w3.org/2000/svg">
<circle cx="50" cy="50" r="50" fill="#E6C619"/>
<circle cx="50" cy="50" r="43" fill="#C7AB17"/>
<path d="M45.875 64.375V69H25.875V64.375H33.2V43.3C33.2 42.4667 33.225 41.6083 33.275 40.725L28.075 45.075C27.775 45.3083 27.475 45.4583 27.175 45.525C26.8917 45.575 26.6167 45.575 26.35 45.525C26.1 45.475 25.875 45.3917 25.675 45.275C25.475 45.1417 25.325 45 25.225 44.85L23.275 42.175L34.3 32.8H39.375V64.375H45.875ZM64.7789 64.175C66.5456 63.9417 67.8789 63.35 68.7789 62.4C69.6956 61.4333 70.1539 60.175 70.1539 58.625C70.1539 57.9917 70.0372 57.4417 69.8039 56.975C69.5872 56.4917 69.2706 56.0667 68.8539 55.7C68.4539 55.3333 67.9789 55.0167 67.4289 54.75C66.8789 54.4833 66.2789 54.2333 65.6289 54L64.7789 64.175ZM63.1789 37.75C62.2456 37.8667 61.4539 38.0667 60.8039 38.35C60.1539 38.6167 59.6206 38.95 59.2039 39.35C58.7872 39.75 58.4789 40.2 58.2789 40.7C58.0956 41.2 58.0039 41.725 58.0039 42.275C58.0039 42.9083 58.1122 43.4667 58.3289 43.95C58.5622 44.4167 58.8706 44.8417 59.2539 45.225C59.6539 45.5917 60.1206 45.925 60.6539 46.225C61.1872 46.5083 61.7706 46.775 62.4039 47.025L63.1789 37.75ZM66.1039 48.225C67.3039 48.5917 68.4956 49 69.6789 49.45C70.8622 49.8833 71.9206 50.45 72.8539 51.15C73.8039 51.85 74.5706 52.725 75.1539 53.775C75.7372 54.8083 76.0289 56.1083 76.0289 57.675C76.0289 59.225 75.7706 60.6833 75.2539 62.05C74.7372 63.4 73.9789 64.6 72.9789 65.65C71.9789 66.6833 70.7539 67.5333 69.3039 68.2C67.8539 68.85 66.1956 69.2333 64.3289 69.35L64.0289 73.025C64.0122 73.4083 63.8456 73.7583 63.5289 74.075C63.2289 74.4083 62.8456 74.575 62.3789 74.575H60.1039L60.5539 69.225C58.6039 68.9583 56.7706 68.425 55.0539 67.625C53.3372 66.825 51.8789 65.8333 50.6789 64.65L52.5789 61.825C52.7456 61.575 52.9622 61.375 53.2289 61.225C53.5122 61.0583 53.8122 60.975 54.1289 60.975C54.4956 60.975 54.8872 61.1083 55.3039 61.375C55.7206 61.625 56.1956 61.925 56.7289 62.275C57.2622 62.6083 57.8706 62.95 58.5539 63.3C59.2372 63.65 60.0456 63.9083 60.9789 64.075L61.9039 52.9C60.7206 52.5667 59.5456 52.175 58.3789 51.725C57.2289 51.275 56.1872 50.6833 55.2539 49.95C54.3372 49.2 53.5956 48.2583 53.0289 47.125C52.4622 45.9917 52.1789 44.575 52.1789 42.875C52.1789 41.6083 52.4289 40.375 52.9289 39.175C53.4289 37.9583 54.1622 36.875 55.1289 35.925C56.1122 34.975 57.3122 34.1917 58.7289 33.575C60.1456 32.9583 61.7706 32.6083 63.6039 32.525L63.8789 29.375C63.9122 28.975 64.0789 28.6167 64.3789 28.3C64.6789 27.9833 65.0706 27.825 65.5539 27.825H67.8289L67.4289 32.725C69.1956 33.0083 70.7206 33.5167 72.0039 34.25C73.2872 34.9667 74.3956 35.775 75.3289 36.675L73.8289 38.95C73.6122 39.2833 73.3872 39.5333 73.1539 39.7C72.9206 39.8667 72.6372 39.95 72.3039 39.95C72.0539 39.95 71.7539 39.875 71.4039 39.725C71.0539 39.5583 70.6622 39.3667 70.2289 39.15C69.7956 38.9167 69.3039 38.6833 68.7539 38.45C68.2206 38.2167 67.6289 38.025 66.9789 37.875L66.1039 48.225Z" fill="#E6C619"/>
</svg>
