<svg width="18" height="17" viewBox="0 0 18 17" fill="none" xmlns="http://www.w3.org/2000/svg">
<path d="M4.39043 9.75552L9.46863 14.78C9.69703 15.021 9.82171 15.3404 9.81629 15.6708C9.81086 16.0011 9.67577 16.3164 9.43958 16.5499C9.2034 16.7834 8.88466 16.9169 8.5508 16.922C8.21694 16.9271 7.89416 16.8035 7.65076 16.5774L0.378017 9.38281C0.258216 9.26495 0.163145 9.12483 0.0982714 8.97049C0.0333973 8.81615 0 8.65065 0 8.48349C0 8.31634 0.0333973 8.15083 0.0982714 7.99649C0.163145 7.84215 0.258216 7.70203 0.378017 7.58417L7.65076 0.388334C7.76936 0.266843 7.91122 0.169937 8.06807 0.103272C8.22492 0.0366061 8.39362 0.00151571 8.56432 4.80275e-05C8.73503 -0.00141965 8.90432 0.0307647 9.06232 0.0947232C9.22031 0.158682 9.36386 0.253133 9.48457 0.372567C9.60528 0.492001 9.70074 0.634025 9.76538 0.790352C9.83002 0.946679 9.86255 1.11418 9.86107 1.28308C9.85958 1.45198 9.82412 1.61889 9.75674 1.77408C9.68936 1.92927 9.59142 2.06963 9.46863 2.18698L4.39043 7.21147H16.7144C17.0553 7.21147 17.3824 7.34548 17.6235 7.58403C17.8646 7.82259 18 8.14613 18 8.48349C18 8.82085 17.8646 9.1444 17.6235 9.38295C17.3824 9.6215 17.0553 9.75552 16.7144 9.75552H4.39043Z" fill="#E5E5E5"/>
</svg>
