<svg width="152" height="54" viewBox="0 0 152 54" fill="none" xmlns="http://www.w3.org/2000/svg">
<path d="M17.085 27.835C18.8117 27.835 20.3167 27.625 21.6 27.205C22.8833 26.7617 23.945 26.1433 24.785 25.35C25.6483 24.5333 26.29 23.5533 26.71 22.41C27.13 21.2433 27.34 19.9483 27.34 18.525C27.34 17.1717 27.13 15.9467 26.71 14.85C26.29 13.7533 25.66 12.82 24.82 12.05C23.98 11.28 22.9183 10.6967 21.635 10.3C20.3517 9.88 18.835 9.67 17.085 9.67H10.05V27.835H17.085ZM17.085 2.39C20.4683 2.39 23.3967 2.78666 25.87 3.58C28.3433 4.37333 30.385 5.48167 31.995 6.905C33.605 8.32833 34.795 10.0317 35.565 12.015C36.3583 13.9983 36.755 16.1683 36.755 18.525C36.755 20.975 36.3467 23.2267 35.53 25.28C34.7133 27.31 33.4883 29.06 31.855 30.53C30.2217 32 28.1683 33.1433 25.695 33.96C23.245 34.7767 20.375 35.185 17.085 35.185H10.05V53H0.635V2.39H17.085ZM73.4131 17.09V53H68.1281C66.9848 53 66.2615 52.475 65.9581 51.425L65.3631 48.555C63.8931 50.0483 62.2715 51.2617 60.4981 52.195C58.7248 53.105 56.6365 53.56 54.2331 53.56C52.2731 53.56 50.5348 53.2333 49.0181 52.58C47.5248 51.9033 46.2648 50.9583 45.2381 49.745C44.2115 48.5317 43.4298 47.0967 42.8931 45.44C42.3798 43.76 42.1231 41.9167 42.1231 39.91V17.09H50.7681V39.91C50.7681 42.1033 51.2698 43.8067 52.2731 45.02C53.2998 46.21 54.8281 46.805 56.8581 46.805C58.3515 46.805 59.7515 46.4783 61.0581 45.825C62.3648 45.1483 63.6015 44.2267 64.7681 43.06V17.09H73.4131ZM118.21 53H109.565V23.565H92.9048V43.025C92.9048 44.145 93.1732 45.02 93.7098 45.65C94.2698 46.28 95.0282 46.595 95.9848 46.595C96.5215 46.595 96.9648 46.5367 97.3148 46.42C97.6882 46.28 98.0032 46.14 98.2598 46C98.5398 45.86 98.7848 45.7317 98.9948 45.615C99.2048 45.475 99.4148 45.405 99.6248 45.405C99.8815 45.405 100.092 45.475 100.255 45.615C100.418 45.7317 100.593 45.9183 100.78 46.175L103.37 50.375C102.11 51.425 100.663 52.2183 99.0298 52.755C97.3965 53.2917 95.7048 53.56 93.9548 53.56C90.8282 53.56 88.4248 52.685 86.7448 50.935C85.0882 49.1617 84.2598 46.7233 84.2598 43.62V23.565H80.5848C80.1182 23.565 79.7215 23.4133 79.3948 23.11C79.0682 22.8067 78.9048 22.3517 78.9048 21.745V18.315L84.6798 17.335L86.4998 7.57C86.6165 7.10333 86.8382 6.74166 87.1648 6.485C87.4915 6.22833 87.9115 6.1 88.4248 6.1H92.9048V17.405H118.21V53ZM119.715 6.485C119.715 7.23166 119.563 7.94333 119.26 8.62C118.957 9.27333 118.548 9.845 118.035 10.335C117.545 10.825 116.95 11.2217 116.25 11.525C115.573 11.805 114.85 11.945 114.08 11.945C113.333 11.945 112.633 11.805 111.98 11.525C111.327 11.2217 110.755 10.825 110.265 10.335C109.775 9.845 109.378 9.27333 109.075 8.62C108.795 7.94333 108.655 7.23166 108.655 6.485C108.655 5.715 108.795 5.00333 109.075 4.35C109.378 3.67333 109.775 3.09 110.265 2.6C110.755 2.08667 111.327 1.69 111.98 1.41C112.633 1.10666 113.333 0.954996 114.08 0.954996C114.85 0.954996 115.573 1.10666 116.25 1.41C116.95 1.69 117.545 2.08667 118.035 2.6C118.548 3.09 118.957 3.67333 119.26 4.35C119.563 5.00333 119.715 5.715 119.715 6.485ZM148.944 24.09C148.71 24.4633 148.465 24.7317 148.209 24.895C147.952 25.035 147.625 25.105 147.229 25.105C146.809 25.105 146.354 24.9883 145.864 24.755C145.397 24.5217 144.849 24.265 144.219 23.985C143.589 23.6817 142.865 23.4133 142.049 23.18C141.255 22.9467 140.31 22.83 139.214 22.83C137.51 22.83 136.169 23.1917 135.189 23.915C134.232 24.6383 133.754 25.5833 133.754 26.75C133.754 27.52 133.999 28.1733 134.489 28.71C135.002 29.2233 135.667 29.6783 136.484 30.075C137.324 30.4717 138.269 30.8333 139.319 31.16C140.369 31.4633 141.43 31.8017 142.504 32.175C143.6 32.5483 144.674 32.98 145.724 33.47C146.774 33.9367 147.707 34.5433 148.524 35.29C149.364 36.0133 150.029 36.8883 150.519 37.915C151.032 38.9417 151.289 40.1783 151.289 41.625C151.289 43.3517 150.974 44.95 150.344 46.42C149.737 47.8667 148.827 49.1267 147.614 50.2C146.4 51.25 144.895 52.0783 143.099 52.685C141.325 53.2683 139.272 53.56 136.939 53.56C135.702 53.56 134.489 53.4433 133.299 53.21C132.132 53 131 52.6967 129.904 52.3C128.83 51.9033 127.827 51.4367 126.894 50.9C125.984 50.3633 125.179 49.78 124.479 49.15L126.474 45.86C126.73 45.4633 127.034 45.16 127.384 44.95C127.734 44.74 128.177 44.635 128.714 44.635C129.25 44.635 129.752 44.7867 130.219 45.09C130.709 45.3933 131.269 45.72 131.899 46.07C132.529 46.42 133.264 46.7467 134.104 47.05C134.967 47.3533 136.052 47.505 137.359 47.505C138.385 47.505 139.26 47.3883 139.984 47.155C140.73 46.8983 141.337 46.5717 141.804 46.175C142.294 45.7783 142.644 45.3233 142.854 44.81C143.087 44.2733 143.204 43.725 143.204 43.165C143.204 42.325 142.947 41.6367 142.434 41.1C141.944 40.5633 141.279 40.0967 140.439 39.7C139.622 39.3033 138.677 38.9533 137.604 38.65C136.554 38.3233 135.469 37.9733 134.349 37.6C133.252 37.2267 132.167 36.795 131.094 36.305C130.044 35.7917 129.099 35.15 128.259 34.38C127.442 33.61 126.777 32.665 126.264 31.545C125.774 30.425 125.529 29.0717 125.529 27.485C125.529 26.015 125.82 24.615 126.404 23.285C126.987 21.955 127.839 20.8 128.959 19.82C130.102 18.8167 131.514 18.0233 133.194 17.44C134.897 16.8333 136.857 16.53 139.074 16.53C141.547 16.53 143.799 16.9383 145.829 17.755C147.859 18.5717 149.55 19.645 150.904 20.975L148.944 24.09Z" fill="#E5E5E5"/>
</svg>
