<svg width="20" height="22" viewBox="0 0 20 22" fill="none" xmlns="http://www.w3.org/2000/svg">
<g clip-path="url(#clip0)">
<path d="M19.7915 5.72094C19.791 5.72048 19.7906 5.72002 19.7902 5.71951L19.7895 5.72029L16.9324 2.57751C16.6487 2.27606 16.1965 2.28471 15.9224 2.59684C15.6551 2.90133 15.6551 3.38402 15.9224 3.68851L17.561 5.49089H13.5711C10.8111 5.49434 8.57441 7.95468 8.57123 10.9908C8.56889 13.1593 6.97133 14.9166 4.99992 14.9192H0.714322C0.319787 14.9192 0 15.271 0 15.7049C0 16.1389 0.319787 16.4906 0.71428 16.4906H4.99987C7.7599 16.4872 9.99657 14.0268 9.99975 10.9908C10.0021 8.8222 11.5996 7.06489 13.5711 7.06231H17.5609L15.9231 8.86391C15.6394 9.16535 15.6315 9.66278 15.9056 9.97486C16.1796 10.287 16.6318 10.2956 16.9155 9.99415C16.9215 9.98785 16.9273 9.9814 16.9331 9.97486L19.7902 6.83208C20.0695 6.52561 20.07 6.02814 19.7915 5.72094Z" fill="#EE6C4D"/>
<path d="M19.7914 15.1492C19.7909 15.1488 19.7905 15.1483 19.7901 15.1479L19.7894 15.1486L16.9323 12.0059C16.6486 11.7044 16.1964 11.7131 15.9223 12.0252C15.655 12.3297 15.655 12.8124 15.9223 13.1168L17.5609 14.9192H13.571C12.6923 14.9199 11.8443 14.5637 11.1897 13.919C10.8933 13.6326 10.442 13.6646 10.1816 13.9906C9.92465 14.3123 9.94921 14.8011 10.2368 15.0897C11.1533 15.9926 12.3407 16.4915 13.571 16.4906H17.5609L15.9231 18.2922C15.6393 18.5936 15.6314 19.091 15.9055 19.4031C16.1795 19.7153 16.6317 19.7239 16.9154 19.4225C16.9214 19.4161 16.9272 19.4097 16.933 19.4031L19.7901 16.2603C20.0694 15.9539 20.0699 15.4564 19.7914 15.1492Z" fill="#EE6C4D"/>
<path d="M8.33406 6.8918C7.41759 5.98884 6.23023 5.48994 4.99987 5.49091H0.71428C0.319787 5.49091 0 5.84267 0 6.27662C0 6.71056 0.319787 7.06232 0.71428 7.06232H4.99987C5.87859 7.06163 6.72658 7.41777 7.38123 8.06252C7.67758 8.34896 8.12886 8.31687 8.38926 7.99093C8.64623 7.66918 8.62166 7.18041 8.33406 6.8918Z" fill="#EE6C4D"/>
</g>
<defs>
<clipPath id="clip0">
<rect width="20" height="22" fill="white"/>
</clipPath>
</defs>
</svg>
