<svg width="255" height="169" viewBox="0 0 255 169" fill="none" xmlns="http://www.w3.org/2000/svg">
<path d="M121.296 70.6597C116.83 66.8807 116.548 60.0917 120.685 55.9548L168.794 7.84591C172.989 3.65088 179.893 4.00948 183.63 8.61657L231.773 67.9546C234.999 71.932 234.7 77.7045 231.078 81.3261L193.045 119.359C189.368 123.036 183.485 123.281 179.515 119.921L149.77 94.7523L121.296 70.6597Z" fill="#C4C4C4" fill-opacity="0.2"/>
<path d="M121.038 56.3083L169.147 8.19947C173.133 4.21418 179.691 4.55486 183.242 8.93159L231.384 68.2696C234.45 72.0481 234.165 77.532 230.724 80.9725L192.692 119.005C189.198 122.499 183.61 122.731 179.838 119.54L150.093 94.3706L121.619 70.278C117.377 66.688 117.108 60.2384 121.038 56.3083Z" stroke="black" stroke-opacity="0.1"/>
<path d="M146 89L212.267 51.2673L226.495 69.107C229.669 73.0862 229.347 78.8143 225.748 82.4133L194.269 113.893C190.778 117.383 185.263 117.805 181.283 114.885L146 89Z" fill="#98C1D9"/>
<path d="M226.469 75.285L188.285 113.469" stroke="white" stroke-opacity="0.2" stroke-width="4" stroke-linecap="round" stroke-linejoin="round"/>
<path d="M125.728 67.8823L147.156 86.0135M168.583 104.145L154.719 92.631" stroke="white" stroke-opacity="0.2" stroke-width="4" stroke-linecap="round" stroke-linejoin="round"/>
<path d="M43.3664 49.8307C45.8607 44.5387 52.3454 42.5088 57.412 45.434L116.333 79.4521C121.471 82.4185 122.911 89.1799 119.429 93.9827L74.5726 155.842C71.566 159.989 65.9126 161.193 61.477 158.632L14.8968 131.739C10.3927 129.139 8.63381 123.52 10.8512 118.815L27.4641 83.5692L43.3664 49.8307Z" fill="#C4C4C4" fill-opacity="0.2"/>
<path d="M57.162 45.867L116.083 79.8851C120.964 82.7032 122.332 89.1265 119.024 93.6892L74.1679 155.549C71.3116 159.488 65.9408 160.632 61.727 158.199L15.1468 131.306C10.8679 128.836 9.19695 123.498 11.3035 119.029L27.9164 83.7824L43.8187 50.0439C46.1883 45.0165 52.3487 43.0881 57.162 45.867Z" stroke="black" stroke-opacity="0.1"/>
<path d="M27.9705 96.3908L108.5 101L74.0358 150.968C71.0962 155.23 65.3894 156.543 60.8823 153.995L20.2151 131.002C15.4476 128.307 13.7353 122.278 16.3743 117.479L27.9705 96.3908Z" fill="#C7AB17"/>
<path d="M68.6773 153.295L21.912 126.295" stroke="white" stroke-opacity="0.2" stroke-width="4" stroke-linecap="round" stroke-linejoin="round"/>
<path d="M49.7542 54.0708L37.7867 79.4611M25.8192 104.851L33.3522 88.4798" stroke="white" stroke-opacity="0.2" stroke-width="4" stroke-linecap="round" stroke-linejoin="round"/>
</svg>
