<svg width="15" height="15" viewBox="0 0 15 15" fill="none" xmlns="http://www.w3.org/2000/svg">
<g clip-path="url(#clip0)">
<path d="M9.86452 2.19267C9.56212 2.07712 9.22351 2.22838 9.10793 2.53067C8.99235 2.83289 9.14367 3.17165 9.4459 3.28723C11.517 4.07927 12.9492 6.07571 12.9492 8.37892C12.9492 11.3836 10.5047 13.8281 7.5 13.8281C4.49528 13.8281 2.05078 11.3836 2.05078 8.37892C2.05078 6.07445 3.48363 4.07912 5.5539 3.28732C5.85615 3.17171 6.00744 2.83295 5.89187 2.53072C5.77623 2.22847 5.43741 2.07721 5.13527 2.19275C2.61284 3.15753 0.878906 5.58669 0.878906 8.37892C0.878906 12.0387 3.84053 15 7.5 15C11.1598 15 14.1211 12.0384 14.1211 8.37892C14.1211 5.58545 12.3861 3.157 9.86452 2.19267Z" fill="#BE553C"/>
<path d="M7.5 0C7.17639 0 6.91406 0.262324 6.91406 0.585938V6.32376C6.91406 6.64737 7.17639 6.9097 7.5 6.9097C7.82361 6.9097 8.08594 6.64734 8.08594 6.32376V0.585938C8.08594 0.262324 7.82361 0 7.5 0Z" fill="#BE553C"/>
</g>
<defs>
<clipPath id="clip0">
<rect width="15" height="15" fill="white"/>
</clipPath>
</defs>
</svg>
